<svg width="14" height="14" fill="none" xmlns="http://www.w3.org/2000/svg"><path fill-rule="evenodd" clip-rule="evenodd" d="M5.53 0l2.94.007c3.099 0 5.526 2.424 5.53 5.52v.012c-.002 1.66-.809 3.333-2.157 4.474-1.145.969-5.546 3.784-5.733 3.903a.526.526 0 01-.733-.162.602.602 0 01-.085-.286v-2.713C2.258 10.639 0 8.435 0 5.53 0 2.429 2.429 0 5.53 0zm.825 12.494c1.354-.878 3.996-2.611 4.8-3.292h.001c1.114-.944 1.78-2.315 1.782-3.669-.001-2.502-1.963-4.463-4.467-4.463h-.002l-2.94-.007c-2.503 0-4.465 1.962-4.465 4.468 0 2.417 1.884 4.172 4.479 4.172h.28c.294 0 .532.238.532.532v2.259z" fill="#6E7F8D"/></svg>