<svg width="16" height="14" fill="none" xmlns="http://www.w3.org/2000/svg"><path fill-rule="evenodd" clip-rule="evenodd" d="M7.99 14H8v-.002h.01C10.066 13.964 16 8.98 16 4.26 16 1.99 13.99 0 11.698 0 9.874 0 8.648 1.171 8 2.02 7.35 1.17 6.124 0 4.301 0 2.011 0 0 1.991 0 4.26 0 8.98 5.933 13.963 7.99 14zM1.195 4.26c0-1.677 1.451-3.149 3.107-3.149 2.014 0 3.138 2.172 3.149 2.195.184.416.92.416 1.104 0 .01-.022 1.134-2.195 3.146-2.195 1.656 0 3.107 1.472 3.107 3.15 0 4.249-5.598 8.583-6.806 8.629-1.207-.046-6.807-4.38-6.807-8.63z" fill="#6E7F8D"/></svg>