<svg width="19" height="13" fill="none" xmlns="http://www.w3.org/2000/svg"><path fill-rule="evenodd" clip-rule="evenodd" d="M5.743 11.822H10.38c.328 0 .595.264.595.589 0 .325-.267.589-.595.589H5.745c-1.638 0-2.971-1.321-2.971-2.945V2.01l-1.76 1.744a.597.597 0 01-.84 0 .583.583 0 010-.833L2.949.173a.596.596 0 01.84 0l2.773 2.75a.585.585 0 010 .832.599.599 0 01-.841 0L3.96 2.011v8.044c0 .973.8 1.767 1.783 1.767zm12.242-2.577a.597.597 0 01.84 0 .583.583 0 010 .833l-2.773 2.75a.59.59 0 01-.42.172.59.59 0 01-.42-.173l-2.773-2.749a.585.585 0 010-.833.597.597 0 01.84 0l1.759 1.744V2.946c0-.974-.8-1.767-1.783-1.767H8.62a.592.592 0 01-.595-.59c0-.325.267-.589.595-.589h4.635c1.638 0 2.971 1.322 2.971 2.946v8.043l1.76-1.744z" fill="#6E7F8D"/></svg>