<svg width="16" height="16" fill="none" xmlns="http://www.w3.org/2000/svg"><path d="M11.828 4.253L7.915.18a.57.57 0 00-.83 0L3.174 4.253a.627.627 0 000 .864c.23.238.6.24.83 0l2.91-3.031v8.303A.6.6 0 007.5 11a.6.6 0 00.587-.611V2.086L11 5.116a.57.57 0 00.829 0 .628.628 0 000-.863z" fill="#6E7F8D"/><path d="M14.166 16H1.834A1.841 1.841 0 010 14.155V9.604C0 9.27.269 9 .6 9c.331 0 .6.27.6.604v4.55c0 .352.284.638.634.638h12.332c.35 0 .634-.286.634-.637V9.604c0-.333.269-.604.6-.604.331 0 .6.27.6.604v4.55A1.841 1.841 0 0114.166 16z" fill="#6E7F8D"/></svg>