<svg width="16" height="16" fill="none" xmlns="http://www.w3.org/2000/svg"><path fill-rule="evenodd" clip-rule="evenodd" d="M1.834 0h12.332C15.178 0 16 .822 16 1.834v12.332A1.835 1.835 0 0114.166 16H1.834A1.835 1.835 0 010 14.166V1.834C0 .822.822 0 1.834 0zm12.332 14.8c.35 0 .634-.284.634-.634V3.533a.633.633 0 00-.632-.632H1.832a.634.634 0 00-.632.633v10.632c0 .35.284.634.634.634h12.332z" fill="#657786"/><path d="M4 6a1 1 0 100-2 1 1 0 000 2zM4 10a1 1 0 100-2 1 1 0 000 2zM12 6a1 1 0 100-2 1 1 0 000 2zM12 10a1 1 0 100-2 1 1 0 000 2zM8 6a1 1 0 100-2 1 1 0 000 2zM8 10a1 1 0 100-2 1 1 0 000 2zM4 13a1 1 0 100-2 1 1 0 000 2zM8 13a1 1 0 100-2 1 1 0 000 2z" fill="#657786"/></svg>