<svg width="14" height="13" fill="none" xmlns="http://www.w3.org/2000/svg"><path fill-rule="evenodd" clip-rule="evenodd" d="M1.432 0h11.136C13.36 0 14 .655 14 1.462v10.075c0 .808-.64 1.463-1.432 1.463H1.432C.64 13 0 12.345 0 11.537V1.463C0 .656.64 0 1.432 0zm8.511 8.046a.563.563 0 00.557-.568l-.001-.002V3.803a.562.562 0 00-.557-.568H6.346a.563.563 0 00-.556.569c0 .314.25.57.556.57h2.253L3.796 9.278a.577.577 0 000 .804.548.548 0 00.788 0L9.386 5.18v2.298c0 .314.25.57.557.57z" fill="#6E7F8D"/></svg>