<svg width="13" height="13" fill="none" xmlns="http://www.w3.org/2000/svg"><path d="M6.585 7.999a.554.554 0 01-.13-.017A3.338 3.338 0 014.66 6.786a3.134 3.134 0 01-.622-2.41 3.208 3.208 0 011.328-2.128L7.633.634c1.492-1.063 3.603-.758 4.708.68.533.698.755 1.554.621 2.412a3.207 3.207 0 01-1.33 2.128l-.95.677a.495.495 0 01-.674-.098.454.454 0 01.101-.65l.95-.678c.516-.366.853-.905.949-1.516a2.242 2.242 0 00-.443-1.72C10.777.844 9.27.625 8.205 1.384L5.939 2.998a2.29 2.29 0 00-.947 1.517 2.233 2.233 0 00.443 1.72c.32.417.763.711 1.28.852.257.07.406.327.334.574A.48.48 0 016.584 8l.001-.001z" fill="#657786"/><path d="M3.374 13A3.41 3.41 0 01.66 11.685a3.137 3.137 0 01-.622-2.41 3.208 3.208 0 011.33-2.129l.95-.677a.495.495 0 01.674.098.454.454 0 01-.101.65l-.95.678A2.288 2.288 0 00.992 9.41a2.237 2.237 0 00.443 1.72c.787 1.025 2.293 1.244 3.36.486l2.266-1.615c1.065-.758 1.291-2.21.504-3.237a2.38 2.38 0 00-1.28-.852.463.463 0 01-.333-.573.488.488 0 01.594-.324c.726.197 1.347.61 1.795 1.196 1.103 1.439.787 3.474-.706 4.537l-2.268 1.615c-.6.429-1.3.635-1.995.635l.001.001z" fill="#657786"/></svg>