<svg width="30" height="24" fill="none" xmlns="http://www.w3.org/2000/svg"><path d="M29.317 2.76a11.563 11.563 0 01-3.343.926A5.89 5.89 0 0028.534.43a11.55 11.55 0 01-3.698 1.427A5.791 5.791 0 0020.586 0c-3.214 0-5.821 2.635-5.821 5.887 0 .46.052.907.15 1.339-4.841-.247-9.13-2.59-12.002-6.15a5.93 5.93 0 00-.787 2.959 5.902 5.902 0 002.59 4.899 5.762 5.762 0 01-2.638-.737v.076c0 2.851 2.006 5.23 4.671 5.77a5.807 5.807 0 01-2.63.102c.741 2.337 2.891 4.04 5.44 4.085a11.606 11.606 0 01-7.232 2.52c-.47 0-.934-.027-1.39-.082a16.34 16.34 0 008.924 2.644c10.712 0 16.567-8.967 16.567-16.743 0-.253-.006-.508-.017-.76a11.909 11.909 0 002.903-3.045l.003-.004z" fill="#1DA1F2"/></svg>