<svg width="17" height="17" fill="none" xmlns="http://www.w3.org/2000/svg"><path fill-rule="evenodd" clip-rule="evenodd" d="M15.261 5.99C16.291 6.517 17 7.626 17 8.905c0 1.21-.635 2.265-1.573 2.821.017.137.027.274.027.415 0 1.79-1.383 3.238-3.09 3.238-.382 0-.746-.069-1.082-.2C10.78 16.259 9.724 17 8.5 17s-2.28-.741-2.783-1.821c-.336.132-.7.202-1.08.202-1.708 0-3.09-1.45-3.09-3.238 0-.141.009-.279.025-.416C.633 11.17 0 10.115 0 8.905c0-1.28.708-2.388 1.738-2.915a3.392 3.392 0 01-.192-1.133c0-1.789 1.383-3.238 3.09-3.238.381 0 .746.069 1.082.202C6.221.742 7.278 0 8.5 0c1.223 0 2.281.74 2.782 1.823a2.905 2.905 0 011.081-.202c1.707 0 3.09 1.447 3.09 3.236 0 .4-.067.781-.192 1.133zm-7.125 5.478l3.508-5.262v-.001a.607.607 0 00-1.012-.674l-3.096 4.646-1.432-1.43a.606.606 0 10-.859.858L7.2 11.56l.093.076a.606.606 0 00.843-.168z" fill="#1DA1F2"/></svg>