<svg width="20" height="20" fill="none" xmlns="http://www.w3.org/2000/svg"><path fill-rule="evenodd" clip-rule="evenodd" d="M15.2 5.217h4.03a.77.77 0 010 1.538h-4.163l-.564 6.49h3.926a.77.77 0 01.769.77.77.77 0 01-.77.768H14.37l-.391 4.513a.77.77 0 01-.766.704l-.067-.003a.77.77 0 01-.7-.834l.38-4.38H6.344l-.393 4.513a.77.77 0 01-.765.704l-.068-.003a.77.77 0 01-.7-.833l.382-4.382H.77a.77.77 0 010-1.538h4.163l.564-6.49H1.571a.77.77 0 010-1.538h4.06L6.023.703a.77.77 0 01.833-.7.77.77 0 01.698.833l-.38 4.38h6.482L14.05.703a.771.771 0 01.833-.7.77.77 0 01.7.832L15.2 5.217zm-8.723 8.027h6.482l.564-6.489H7.041l-.564 6.489z" fill="#14171A"/></svg>