<svg width="23" height="23" fill="none" xmlns="http://www.w3.org/2000/svg"><path fill-rule="evenodd" clip-rule="evenodd" d="M11.877.103l10.706 6.274c.386.227.53.75.322 1.168-.209.419-.692.572-1.078.35l-.867-.509L19.237 20.6c-.23 1.425-1.389 2.4-2.822 2.4H6.58c-1.43 0-2.59-.974-2.817-2.371L2.036 7.389l-.864.506a.757.757 0 01-.377.103.788.788 0 01-.7-.452c-.208-.42-.064-.943.322-1.17L11.12.105a.741.741 0 01.756 0zm4.54 21.172c.506 0 1.137-.248 1.25-.945L19.47 6.512 11.5 1.843l-7.97 4.672 1.804 13.842c.109.67.74.918 1.248.918h9.836z" fill="#14171A"/><path fill-rule="evenodd" clip-rule="evenodd" d="M11.5 17.25c-2.307 0-4.182-2.064-4.182-4.6 0-2.536 1.875-4.6 4.182-4.6 2.307 0 4.182 2.064 4.182 4.6 0 2.536-1.875 4.6-4.182 4.6zm0-1.825c1.392 0 2.522-1.244 2.522-2.775 0-1.53-1.13-2.775-2.522-2.775S8.978 11.12 8.978 12.65c0 1.53 1.13 2.775 2.522 2.775z" fill="#14171A"/></svg>