<svg width="22" height="22" fill="none" xmlns="http://www.w3.org/2000/svg"><path fill-rule="evenodd" clip-rule="evenodd" d="M2.475 22h17.05A2.479 2.479 0 0022 19.525V2.475A2.479 2.479 0 0019.525 0H2.475A2.479 2.479 0 000 2.475v17.05A2.479 2.479 0 002.475 22zM1.65 2.475c0-.454.37-.825.825-.825h17.05c.455 0 .825.37.825.825v17.05c0 .454-.37.825-.825.825H2.475a.826.826 0 01-.825-.825V2.475z" fill="#14171A"/><path fill-rule="evenodd" clip-rule="evenodd" d="M17.152 7.698H5.848a.85.85 0 010-1.698h11.304a.848.848 0 010 1.698zm0 4.65H5.848a.849.849 0 010-1.697h11.304a.849.849 0 010 1.698zM5.848 17H11.5a.85.85 0 000-1.697H5.848a.848.848 0 000 1.697z" fill="#14171A"/></svg>