<svg width="20" height="18" fill="none" xmlns="http://www.w3.org/2000/svg"><path fill-rule="evenodd" clip-rule="evenodd" d="M17.25 0H2.75A2.753 2.753 0 000 2.752v12.495A2.754 2.754 0 002.75 18h14.5A2.754 2.754 0 0020 15.247V2.752A2.753 2.753 0 0017.25 0zM2.75 1.5h14.5c.69 0 1.25.56 1.25 1.25v.714l-8.05 5.367a.81.81 0 01-.9-.002L1.5 3.464V2.75c0-.69.56-1.25 1.25-1.25zM1.5 15.248c0 .69.56 1.25 1.25 1.25h14.5v-.003c.69 0 1.25-.56 1.25-1.25V5.223l-7.24 4.83a2.267 2.267 0 01-2.52-.001L1.5 5.222v10.026z" fill="#14171A"/></svg>