<svg width="23" height="23" fill="none" xmlns="http://www.w3.org/2000/svg"><path fill-rule="evenodd" clip-rule="evenodd" d="M6.5 9.25c-.965 0-1.75.787-1.75 1.75s.785 1.75 1.75 1.75c.964 0 1.75-.786 1.75-1.75S7.463 9.25 6.5 9.25zm4.5 0c-.966 0-1.75.787-1.75 1.75s.785 1.75 1.75 1.75 1.75-.786 1.75-1.75-.784-1.75-1.75-1.75zM13.75 11c0-.963.785-1.75 1.75-1.75.964 0 1.75.786 1.75 1.75s-.786 1.75-1.75 1.75c-.966 0-1.75-.787-1.75-1.75zm1 0a.75.75 0 101.5 0 .75.75 0 00-1.5 0zm-4.5 0a.75.75 0 101.5 0 .75.75 0 00-1.5 0zm-4.5 0a.75.75 0 101.5 0 .75.75 0 00-1.5 0z" fill="#14171A"/><path fill-rule="evenodd" clip-rule="evenodd" d="M.25 11c0 5.928 4.822 10.75 10.75 10.75S21.75 16.928 21.75 11 16.928.25 11 .25.25 5.072.25 11zm1.5 0c0-5.1 4.15-9.25 9.25-9.25S20.25 5.9 20.25 11 16.1 20.25 11 20.25 1.75 16.1 1.75 11z" fill="#14171A"/></svg>