<svg width="20" height="21" fill="none" xmlns="http://www.w3.org/2000/svg"><path fill-rule="evenodd" clip-rule="evenodd" d="M19.698 14.538h-.001c-.055-.044-2.139-1.677-2.102-6.03.02-2.532-.812-4.782-2.347-6.335C13.873.78 12.01.01 10.006 0h-.013C7.989.01 6.127.78 4.75 2.174 3.217 3.727 2.383 5.976 2.405 8.508c.037 4.33-2.02 5.967-2.102 6.03a.75.75 0 00.447 1.353h4.92c.102 2.31 1.997 4.16 4.33 4.16s4.226-1.85 4.327-4.16h4.922c.322 0 .61-.206.71-.514a.747.747 0 00-.263-.838l.002-.001zM10 18.548a2.84 2.84 0 01-2.828-2.658h5.656c-.1 1.48-1.323 2.66-2.828 2.66v-.002zM3.905 8.494c.024 2.868-.784 4.764-1.524 5.896v.001h15.24c-.74-1.131-1.55-3.028-1.525-5.896.018-2.161-.645-3.982-1.915-5.267C13.088 2.12 11.604 1.508 10 1.5c-1.603.007-3.09.62-4.183 1.727-1.27 1.285-1.931 3.107-1.913 5.267z" fill="#14171A"/></svg>